<svg width="25" height="25" viewBox="0 0 25 25" fill="none" xmlns="http://www.w3.org/2000/svg">
<path fill-rule="evenodd" clip-rule="evenodd" d="M12.5 22.9168C18.2531 22.9168 22.9167 18.2533 22.9167 12.5002C22.9167 6.74704 18.2531 2.0835 12.5 2.0835C6.74687 2.0835 2.08333 6.74704 2.08333 12.5002C2.08333 18.2533 6.74687 22.9168 12.5 22.9168ZM16.1833 8.81683C16.3789 8.62151 16.6441 8.51189 16.9205 8.51208C17.1969 8.51228 17.462 8.62227 17.6573 8.81787C17.8526 9.01347 17.9622 9.27865 17.962 9.55507C17.9618 9.83149 17.8518 10.0965 17.6562 10.2918L11.7677 16.1804L11.7635 16.1845C11.667 16.2816 11.5523 16.3586 11.4259 16.4112C11.2995 16.4638 11.164 16.4908 11.0271 16.4908C10.8902 16.4908 10.7547 16.4638 10.6283 16.4112C10.5019 16.3586 10.3871 16.2816 10.2906 16.1845L10.2865 16.1804L7.34374 13.2377C7.24426 13.1416 7.1649 13.0266 7.11031 12.8995C7.05571 12.7725 7.02698 12.6358 7.02578 12.4975C7.02457 12.3591 7.05093 12.222 7.10331 12.094C7.15568 11.9659 7.23303 11.8496 7.33083 11.7518C7.42864 11.654 7.54494 11.5767 7.67296 11.5243C7.80098 11.4719 7.93814 11.4456 8.07645 11.4468C8.21477 11.448 8.35145 11.4767 8.47854 11.5313C8.60563 11.5859 8.72057 11.6653 8.81666 11.7647L11.0271 13.9741L16.1833 8.81787V8.81683Z" fill="white"/>
</svg>
