<svg width="16" height="16" viewBox="0 0 16 16" fill="none" xmlns="http://www.w3.org/2000/svg">
<path fill-rule="evenodd" clip-rule="evenodd" d="M8 14.6668C11.682 14.6668 14.6667 11.6822 14.6667 8.00016C14.6667 4.31816 11.682 1.3335 8 1.3335C4.318 1.3335 1.33333 4.31816 1.33333 8.00016C1.33333 11.6822 4.318 14.6668 8 14.6668ZM10.3573 5.64283C10.4825 5.51782 10.6522 5.44767 10.8291 5.44779C11.006 5.44792 11.1757 5.51831 11.3007 5.6435C11.4257 5.76868 11.4958 5.93839 11.4957 6.1153C11.4956 6.29221 11.4252 6.46182 11.3 6.58683L7.53133 10.3555L7.52867 10.3582C7.4669 10.4203 7.39346 10.4696 7.31257 10.5032C7.23168 10.5369 7.14494 10.5542 7.05733 10.5542C6.96973 10.5542 6.88299 10.5369 6.8021 10.5032C6.72121 10.4696 6.64777 10.4203 6.586 10.3582L6.58333 10.3555L4.7 8.47216C4.63633 8.41066 4.58554 8.3371 4.5506 8.25577C4.51566 8.17443 4.49727 8.08695 4.4965 7.99843C4.49573 7.90991 4.5126 7.82212 4.54612 7.74019C4.57964 7.65826 4.62914 7.58383 4.69174 7.52123C4.75433 7.45864 4.82876 7.40913 4.9107 7.37561C4.99263 7.34209 5.08041 7.32523 5.16893 7.326C5.25745 7.32676 5.34493 7.34516 5.42627 7.3801C5.5076 7.41503 5.58117 7.46582 5.64266 7.5295L7.05733 8.9435L10.3573 5.6435V5.64283Z" fill="#00C53B"/>
</svg>
