<svg width="25" height="5" viewBox="0 0 25 5" fill="none" xmlns="http://www.w3.org/2000/svg">
<path d="M12.5 0C11.9506 0 11.4136 0.146623 10.9568 0.421326C10.4999 0.69603 10.1439 1.08648 9.93367 1.54329C9.72343 2.00011 9.66842 2.50277 9.7756 2.98773C9.88278 3.47268 10.1473 3.91813 10.5358 4.26777C10.9243 4.6174 11.4192 4.8555 11.9581 4.95196C12.4969 5.04843 13.0554 4.99892 13.563 4.8097C14.0706 4.62048 14.5044 4.30005 14.8096 3.88892C15.1149 3.4778 15.2778 2.99445 15.2778 2.5C15.2778 1.83696 14.9851 1.20107 14.4642 0.732233C13.9433 0.263393 13.2367 0 12.5 0ZM2.77778 0C2.22839 0 1.69133 0.146623 1.23453 0.421326C0.777725 0.69603 0.42169 1.08648 0.211447 1.54329C0.00120356 2.00011 -0.0538057 2.50277 0.0533755 2.98773C0.160557 3.47268 0.425114 3.91813 0.813593 4.26777C1.20207 4.6174 1.69703 4.8555 2.23586 4.95196C2.7747 5.04843 3.33322 4.99892 3.84079 4.8097C4.34836 4.62048 4.78219 4.30005 5.08742 3.88892C5.39264 3.4778 5.55556 2.99445 5.55556 2.5C5.55556 1.83696 5.2629 1.20107 4.74196 0.732233C4.22103 0.263393 3.51449 0 2.77778 0ZM22.2222 0C21.6728 0 21.1358 0.146623 20.679 0.421326C20.2222 0.69603 19.8661 1.08648 19.6559 1.54329C19.4456 2.00011 19.3906 2.50277 19.4978 2.98773C19.605 3.47268 19.8696 3.91813 20.258 4.26777C20.6465 4.6174 21.1415 4.8555 21.6803 4.95196C22.2191 5.04843 22.7777 4.99892 23.2852 4.8097C23.7928 4.62048 24.2266 4.30005 24.5319 3.88892C24.8371 3.4778 25 2.99445 25 2.5C25 1.83696 24.7073 1.20107 24.1864 0.732233C23.6655 0.263393 22.9589 0 22.2222 0Z" fill="white"/>
</svg>
