<svg width="18" height="18" viewBox="0 0 18 18" fill="none" xmlns="http://www.w3.org/2000/svg">
<g clip-path="url(#clip0_68_597)">
<path d="M16.5 3.75L14.25 1.5L12 3.75M14.25 1.5V6M16.5 9V12.9C16.5 14.1601 16.5 14.7902 16.2548 15.2715C16.039 15.6948 15.6948 16.039 15.2715 16.2548C14.7902 16.5 14.1601 16.5 12.9 16.5H5.1C3.83988 16.5 3.20982 16.5 2.72852 16.2548C2.30516 16.039 1.96095 15.6948 1.74524 15.2715C1.5 14.7902 1.5 14.1601 1.5 12.9V5.1C1.5 3.83988 1.5 3.20982 1.74524 2.72852C1.96095 2.30516 2.30516 1.96095 2.72852 1.74524C3.20982 1.5 3.83988 1.5 5.1 1.5H9M1.60913 14.9447C1.96099 13.6789 3.12192 12.75 4.49983 12.75H9.74983C10.4468 12.75 10.7953 12.75 11.0851 12.8076C12.2752 13.0444 13.2055 13.9747 13.4422 15.1647C13.4998 15.4545 13.4998 15.803 13.4998 16.5M10.5 7.125C10.5 8.78185 9.15685 10.125 7.5 10.125C5.84315 10.125 4.5 8.78185 4.5 7.125C4.5 5.46815 5.84315 4.125 7.5 4.125C9.15685 4.125 10.5 5.46815 10.5 7.125Z" stroke="#D1D5DB" stroke-width="2" stroke-linecap="round" stroke-linejoin="round"/>
</g>
<defs>
<clipPath id="clip0_68_597">
<rect width="18" height="18" fill="white"/>
</clipPath>
</defs>
</svg>
