<svg width="24" height="24" viewBox="0 0 24 24" fill="none" xmlns="http://www.w3.org/2000/svg">
<path d="M20.865 3.61493C20.7375 3.44991 20.5725 3.32242 20.3775 3.23993L15.72 1.34991C15.4125 1.22993 15.045 1.22993 14.7525 1.40242C14.4075 1.57491 14.19 1.9424 14.16 2.32491C14.01 2.52742 13.2449 2.93991 12 2.93991C10.755 2.93991 9.98998 2.52742 9.83997 2.32491C9.82496 1.57491 8.97746 1.04244 8.29497 1.34241L3.62249 3.23993C3.42748 3.32242 3.26246 3.44991 3.13497 3.61493L0.592457 7.06491C0.307457 7.45492 0.299994 7.98739 0.584994 8.38491L3.33748 12.2324C3.70497 12.7649 4.52249 12.8549 4.99495 12.4124L5.55745 21.6824C5.58748 22.2749 6.08246 22.7399 6.67499 22.7399H17.3249C17.9175 22.7399 18.4125 22.2749 18.4425 21.6824L19.005 12.4124C19.4774 12.8549 20.295 12.7649 20.6625 12.2324L23.4149 8.38491C23.6999 7.98739 23.6925 7.45492 23.4075 7.06491L20.865 3.61493Z" fill="#374151"/>
</svg>
