<svg width="16" height="16" viewBox="0 0 16 16" fill="none" xmlns="http://www.w3.org/2000/svg">
<path d="M14.6133 7.73329C13.2667 4.60663 10.7333 2.66663 8.00001 2.66663C5.26668 2.66663 2.73335 4.60663 1.38668 7.73329C1.34997 7.8174 1.33102 7.90819 1.33102 7.99996C1.33102 8.09173 1.34997 8.18252 1.38668 8.26663C2.73335 11.3933 5.26668 13.3333 8.00001 13.3333C10.7333 13.3333 13.2667 11.3933 14.6133 8.26663C14.6501 8.18252 14.669 8.09173 14.669 7.99996C14.669 7.90819 14.6501 7.8174 14.6133 7.73329ZM8.00001 12C5.88668 12 3.88668 10.4733 2.73335 7.99996C3.88668 5.52663 5.88668 3.99996 8.00001 3.99996C10.1133 3.99996 12.1133 5.52663 13.2667 7.99996C12.1133 10.4733 10.1133 12 8.00001 12ZM8.00001 5.33329C7.4726 5.33329 6.95702 5.48969 6.51849 5.78271C6.07996 6.07572 5.73817 6.4922 5.53633 6.97947C5.3345 7.46674 5.28169 8.00292 5.38459 8.5202C5.48748 9.03748 5.74146 9.51264 6.1144 9.88558C6.48734 10.2585 6.96249 10.5125 7.47977 10.6154C7.99706 10.7183 8.53323 10.6655 9.0205 10.4636C9.50777 10.2618 9.92425 9.92001 10.2173 9.48148C10.5103 9.04295 10.6667 8.52738 10.6667 7.99996C10.6667 7.29272 10.3857 6.61444 9.88563 6.11434C9.38553 5.61424 8.70726 5.33329 8.00001 5.33329ZM8.00001 9.33329C7.73631 9.33329 7.47852 9.25509 7.25925 9.10859C7.03999 8.96208 6.86909 8.75384 6.76817 8.5102C6.66726 8.26657 6.64085 7.99848 6.6923 7.73984C6.74375 7.4812 6.87073 7.24362 7.0572 7.05715C7.24367 6.87068 7.48125 6.74369 7.73989 6.69225C7.99853 6.6408 8.26662 6.6672 8.51026 6.76812C8.75389 6.86904 8.96213 7.03993 9.10864 7.2592C9.25515 7.47846 9.33335 7.73625 9.33335 7.99996C9.33335 8.35358 9.19287 8.69272 8.94282 8.94277C8.69277 9.19282 8.35364 9.33329 8.00001 9.33329Z" fill="#4B5563"/>
<line x1="13.3536" y1="2.35355" x2="2.35355" y2="13.3536" stroke="#4B5563"/>
</svg>
