<svg width="16" height="16" viewBox="0 0 16 16" fill="none" xmlns="http://www.w3.org/2000/svg">
<path d="M14.6133 7.73329C13.2667 4.60663 10.7333 2.66663 8 2.66663C5.26667 2.66663 2.73333 4.60663 1.38667 7.73329C1.34996 7.8174 1.33101 7.90819 1.33101 7.99996C1.33101 8.09173 1.34996 8.18252 1.38667 8.26663C2.73333 11.3933 5.26667 13.3333 8 13.3333C10.7333 13.3333 13.2667 11.3933 14.6133 8.26663C14.65 8.18252 14.669 8.09173 14.669 7.99996C14.669 7.90819 14.65 7.8174 14.6133 7.73329ZM8 12C5.88667 12 3.88667 10.4733 2.73333 7.99996C3.88667 5.52663 5.88667 3.99996 8 3.99996C10.1133 3.99996 12.1133 5.52663 13.2667 7.99996C12.1133 10.4733 10.1133 12 8 12ZM8 5.33329C7.47258 5.33329 6.95701 5.48969 6.51848 5.78271C6.07995 6.07572 5.73815 6.4922 5.53632 6.97947C5.33449 7.46674 5.28168 8.00292 5.38457 8.5202C5.48747 9.03748 5.74144 9.51264 6.11438 9.88558C6.48732 10.2585 6.96248 10.5125 7.47976 10.6154C7.99704 10.7183 8.53322 10.6655 9.02049 10.4636C9.50776 10.2618 9.92424 9.92001 10.2173 9.48148C10.5103 9.04295 10.6667 8.52738 10.6667 7.99996C10.6667 7.29272 10.3857 6.61444 9.88562 6.11434C9.38552 5.61424 8.70724 5.33329 8 5.33329ZM8 9.33329C7.73629 9.33329 7.47851 9.25509 7.25924 9.10859C7.03997 8.96208 6.86908 8.75384 6.76816 8.5102C6.66724 8.26657 6.64084 7.99848 6.69229 7.73984C6.74373 7.4812 6.87072 7.24362 7.05719 7.05715C7.24366 6.87068 7.48124 6.74369 7.73988 6.69225C7.99852 6.6408 8.26661 6.6672 8.51024 6.76812C8.75388 6.86904 8.96212 7.03993 9.10863 7.2592C9.25513 7.47846 9.33333 7.73625 9.33333 7.99996C9.33333 8.35358 9.19286 8.69272 8.94281 8.94277C8.69276 9.19282 8.35362 9.33329 8 9.33329Z" fill="#4B5563"/>
</svg>
