<svg width="20" height="20" viewBox="0 0 20 20" fill="none" xmlns="http://www.w3.org/2000/svg">
<path d="M15.9519 2.26172H12.9757C12.8178 2.26172 12.6664 2.32443 12.5548 2.43606C12.4432 2.54769 12.3805 2.69909 12.3805 2.85696C12.3805 3.01482 12.4432 3.16622 12.5548 3.27785C12.6664 3.38948 12.8178 3.45219 12.9757 3.45219H14.5152L12.6438 5.32347C12.0944 4.81141 11.4316 4.43659 10.7096 4.2296C9.98764 4.02263 9.22691 3.98937 8.4896 4.13254C7.7523 4.27572 7.05932 4.59126 6.46726 5.05341C5.8752 5.51557 5.40086 6.1112 5.08297 6.7917C4.76509 7.47219 4.61268 8.21821 4.63818 8.96886C4.6637 9.71953 4.8664 10.4534 5.22976 11.1108C5.5931 11.7681 6.10678 12.3302 6.72885 12.7511C7.35092 13.172 8.06372 13.4397 8.80904 13.5326V14.7617H7.02333C6.86546 14.7617 6.71406 14.8244 6.60243 14.9361C6.4908 15.0477 6.42809 15.1991 6.42809 15.357C6.42809 15.5149 6.4908 15.6662 6.60243 15.7778C6.71406 15.8895 6.86546 15.9522 7.02333 15.9522H8.80904V17.7379C8.80904 17.8958 8.87176 18.0471 8.98338 18.1588C9.09501 18.2705 9.24641 18.3331 9.40428 18.3331C9.56212 18.3331 9.71354 18.2705 9.82516 18.1588C9.93678 18.0471 9.99955 17.8958 9.99955 17.7379V15.9522H11.7853C11.9431 15.9522 12.0945 15.8895 12.2061 15.7778C12.3177 15.6662 12.3805 15.5149 12.3805 15.357C12.3805 15.1991 12.3177 15.0477 12.2061 14.9361C12.0945 14.8244 11.9431 14.7617 11.7853 14.7617H9.99955V13.5326C10.7974 13.4329 11.557 13.1326 12.2073 12.6596C12.8575 12.1868 13.3773 11.5567 13.7179 10.8284C14.0586 10.1 14.2091 9.29722 14.1553 8.49496C14.1014 7.6927 13.8452 6.91719 13.4102 6.24089L15.3567 4.29371V5.83315C15.3567 5.99101 15.4194 6.14241 15.531 6.25404C15.6426 6.36567 15.794 6.42839 15.9519 6.42839C16.1097 6.42839 16.2612 6.36567 16.3728 6.25404C16.4844 6.14241 16.5472 5.99101 16.5472 5.83315V2.85696C16.5472 2.69909 16.4844 2.54769 16.3728 2.43606C16.2612 2.32443 16.1097 2.26172 15.9519 2.26172ZM9.40428 12.3808C8.69792 12.3808 8.00742 12.1713 7.4201 11.7789C6.83278 11.3865 6.37502 10.8287 6.10472 10.1761C5.8344 9.52347 5.76367 8.80538 5.90148 8.11259C6.03928 7.41979 6.37943 6.78343 6.8789 6.28396C7.37837 5.78448 8.01475 5.44434 8.70753 5.30654C9.40032 5.16873 10.1184 5.23945 10.771 5.50977C11.4236 5.78008 11.9814 6.23784 12.3738 6.82516C12.7662 7.41248 12.9757 8.10298 12.9757 8.80934C12.9747 9.7562 12.5981 10.6641 11.9286 11.3336C11.259 12.0031 10.3512 12.3798 9.40428 12.3808Z" fill="white"/>
</svg>
