<svg width="18" height="18" viewBox="0 0 18 18" fill="none" xmlns="http://www.w3.org/2000/svg">
<path d="M14.3567 2.03564H11.6781C11.536 2.03564 11.3997 2.09209 11.2993 2.19255C11.1988 2.29302 11.1424 2.42928 11.1424 2.57136C11.1424 2.71344 11.1988 2.8497 11.2993 2.95016C11.3997 3.05063 11.536 3.10707 11.6781 3.10707H13.0636L11.3794 4.79122C10.8849 4.33037 10.2885 3.99302 9.63866 3.80674C8.98886 3.62047 8.3042 3.59053 7.64062 3.71938C6.97705 3.84824 6.35337 4.13223 5.82052 4.54817C5.28766 4.96411 4.86076 5.50018 4.57466 6.11263C4.28856 6.72506 4.15139 7.39649 4.17435 8.07207C4.19731 8.74767 4.37974 9.40819 4.70676 9.99979C5.03377 10.5914 5.49609 11.0973 6.05595 11.476C6.61581 11.8549 7.25733 12.0958 7.92812 12.1794V13.2856H6.32098C6.1789 13.2856 6.04264 13.342 5.94217 13.4426C5.8417 13.543 5.78526 13.6792 5.78526 13.8214C5.78526 13.9635 5.8417 14.0997 5.94217 14.2001C6.04264 14.3007 6.1789 14.3571 6.32098 14.3571H7.92812V15.9642C7.92812 16.1063 7.98456 16.2425 8.08503 16.343C8.18549 16.4435 8.32175 16.4999 8.46383 16.4999C8.60589 16.4999 8.74217 16.4435 8.84263 16.343C8.94309 16.2425 8.99957 16.1063 8.99957 15.9642V14.3571H10.6067C10.7487 14.3571 10.885 14.3007 10.9855 14.2001C11.0859 14.0997 11.1424 13.9635 11.1424 13.8214C11.1424 13.6792 11.0859 13.543 10.9855 13.4426C10.885 13.342 10.7487 13.2856 10.6067 13.2856H8.99957V12.1794C9.7176 12.0897 10.4013 11.8194 10.9865 11.3938C11.5718 10.9682 12.0395 10.4011 12.3461 9.74564C12.6527 9.0901 12.7881 8.3676 12.7397 7.64556C12.6913 6.92353 12.4606 6.22556 12.0692 5.6169L13.821 3.86444V5.24993C13.821 5.39201 13.8774 5.52827 13.9779 5.62874C14.0783 5.7292 14.2146 5.78564 14.3567 5.78564C14.4987 5.78564 14.635 5.7292 14.7355 5.62874C14.8359 5.52827 14.8924 5.39201 14.8924 5.24993V2.57136C14.8924 2.42928 14.8359 2.29302 14.7355 2.19255C14.635 2.09209 14.4987 2.03564 14.3567 2.03564ZM8.46383 11.1428C7.82811 11.1428 7.20666 10.9543 6.67807 10.6011C6.14949 10.2479 5.7375 9.7459 5.49423 9.15859C5.25094 8.57122 5.18728 7.92494 5.31131 7.30142C5.43533 6.67791 5.74147 6.10519 6.19099 5.65566C6.64052 5.20613 7.21325 4.9 7.83676 4.77598C8.46027 4.65195 9.10654 4.7156 9.69386 4.95889C10.2813 5.20217 10.7832 5.61416 11.1364 6.14274C11.4896 6.67133 11.6781 7.29278 11.6781 7.9285C11.6772 8.78067 11.3383 9.59779 10.7357 10.2004C10.1331 10.8029 9.31603 11.1419 8.46383 11.1428Z" fill="#D1D5DB"/>
</svg>
