<svg width="16" height="16" viewBox="0 0 16 16" fill="none" xmlns="http://www.w3.org/2000/svg">
<path d="M8 7.99992L5.15141 5.62609C4.72818 5.2734 4.51656 5.09705 4.36443 4.88088C4.22963 4.68934 4.12953 4.47561 4.06868 4.24944C4.00001 3.99418 4.00001 3.71871 4.00001 3.16779V1.33325M8 7.99992L10.8486 5.62609C11.2718 5.2734 11.4835 5.09705 11.6356 4.88088C11.7704 4.68934 11.8705 4.47561 11.9313 4.24944C12 3.99418 12 3.71871 12 3.16779V1.33325M8 7.99992L5.15141 10.3737C4.72818 10.7265 4.51656 10.9028 4.36443 11.119C4.22963 11.3105 4.12953 11.5243 4.06868 11.7504C4.00001 12.0057 4.00001 12.2811 4.00001 12.8321V14.6666M8 7.99992L10.8486 10.3737C11.2718 10.7265 11.4835 10.9028 11.6356 11.119C11.7704 11.3105 11.8705 11.5243 11.9313 11.7504C12 12.0057 12 12.2811 12 12.8321V14.6666M2.66667 1.33325H13.3333M2.66667 14.6666H13.3333" stroke="#D1D5DB" stroke-width="2" stroke-linecap="round" stroke-linejoin="round"/>
</svg>
