<svg width="16" height="16" viewBox="0 0 16 16" fill="none" xmlns="http://www.w3.org/2000/svg">
<path fill-rule="evenodd" clip-rule="evenodd" d="M8.00001 14.6666C11.682 14.6666 14.6667 11.6819 14.6667 7.99992C14.6667 4.31792 11.682 1.33325 8.00001 1.33325C4.31801 1.33325 1.33334 4.31792 1.33334 7.99992C1.33334 11.6819 4.31801 14.6666 8.00001 14.6666ZM10.3573 5.64258C10.4825 5.51758 10.6522 5.44742 10.8291 5.44755C11.0061 5.44767 11.1757 5.51807 11.3007 5.64325C11.4257 5.76843 11.4958 5.93815 11.4957 6.11506C11.4956 6.29197 11.4252 6.46158 11.3 6.58659L7.53134 10.3553L7.52868 10.3579C7.46691 10.42 7.39347 10.4693 7.31258 10.503C7.23169 10.5366 7.14495 10.5539 7.05734 10.5539C6.96974 10.5539 6.883 10.5366 6.80211 10.503C6.72122 10.4693 6.64778 10.42 6.58601 10.3579L6.58334 10.3553L4.70001 8.47192C4.63634 8.41042 4.58555 8.33686 4.55061 8.25552C4.51567 8.17419 4.49728 8.08671 4.49651 7.99819C4.49574 7.90967 4.51261 7.82188 4.54613 7.73995C4.57965 7.65802 4.62915 7.58358 4.69175 7.52099C4.75434 7.45839 4.82878 7.40889 4.91071 7.37537C4.99264 7.34185 5.08042 7.32498 5.16894 7.32575C5.25746 7.32652 5.34494 7.34491 5.42628 7.37985C5.50762 7.41479 5.58118 7.46558 5.64268 7.52925L7.05734 8.94325L10.3573 5.64325V5.64258Z" fill="#36BDEB"/>
</svg>
