<svg width="20" height="20" viewBox="0 0 20 20" fill="none" xmlns="http://www.w3.org/2000/svg">
<g clip-path="url(#clip0_165_88)">
<path d="M17.6 4.59998H2.4C2.18 4.59998 2 4.77998 2 4.99998V15C2 15.22 2.18 15.4 2.4 15.4H17.6C17.82 15.4 18 15.22 18 15V4.99998C18 4.77998 17.82 4.59998 17.6 4.59998ZM16.64 5.39998L10 12.04L3.36 5.39998H16.64ZM2.8 5.95998L6.84 9.99998L2.8 14.04V5.95998ZM3.38 14.6L7.4 10.58L9.72 12.9C9.88 13.06 10.12 13.06 10.28 12.9L12.6 10.58L16.62 14.6H3.38ZM17.2 14.04L13.16 9.99998L17.2 5.95998V14.04Z" fill="#9CA3AF"/>
<path d="M160.8 -102V234.8H-196V-102H160.8ZM162.4 -103.6H-197.6V236.4H162.4V-103.6Z" fill="#0000FF"/>
</g>
<defs>
<clipPath id="clip0_165_88">
<rect width="20" height="20" fill="white"/>
</clipPath>
</defs>
</svg>
