<svg width="24" height="24" viewBox="0 0 24 24" fill="none" xmlns="http://www.w3.org/2000/svg">
<path fill-rule="evenodd" clip-rule="evenodd" d="M3.24792 3.30803C3.6496 2.89798 4.30085 2.89798 4.70254 3.30803L20.2767 19.2067C20.6784 19.6167 20.6784 20.2816 20.2767 20.6916C19.875 21.1017 19.2238 21.1017 18.8221 20.6916L3.24792 4.79295C2.84623 4.3829 2.84623 3.71808 3.24792 3.30803Z" fill="#374151"/>
<path fill-rule="evenodd" clip-rule="evenodd" d="M14.7012 3C16.3242 3 17.6399 4.34315 17.6399 6V18C17.6399 18.4341 17.5496 18.8468 17.387 19.2194L5.88483 7.4775V6C5.88483 4.34315 7.20056 3 8.8236 3H14.7012ZM13.893 6C13.893 6.5799 13.4325 7.05 12.8644 7.05H10.6603C10.0923 7.05 9.63177 6.5799 9.63177 6C9.63177 5.4201 10.0923 4.95001 10.6603 4.95001H12.8644C13.4325 4.95001 13.893 5.4201 13.893 6Z" fill="#374151"/>
<path fill-rule="evenodd" clip-rule="evenodd" d="M14.7012 3C16.3242 3 17.6399 4.34315 17.6399 6V18C17.6399 18.4341 17.5496 18.8468 17.387 19.2194L5.88483 7.4775V6C5.88483 4.34315 7.20056 3 8.8236 3H14.7012ZM13.893 6C13.893 6.5799 13.4325 7.05 12.8644 7.05H10.6603C10.0923 7.05 9.63177 6.5799 9.63177 6C9.63177 5.4201 10.0923 4.95001 10.6603 4.95001H12.8644C13.4325 4.95001 13.893 5.4201 13.893 6Z" fill="#374151"/>
<path d="M5.88483 9.59863V17.9998C5.88483 19.6567 7.20057 20.9998 8.8236 20.9998H14.7012C15.3631 20.9998 15.9739 20.7764 16.4652 20.3994L5.88483 9.59863Z" fill="#374151"/>
<path d="M5.88483 9.59863V17.9998C5.88483 19.6567 7.20057 20.9998 8.8236 20.9998H14.7012C15.3631 20.9998 15.9739 20.7764 16.4652 20.3994L5.88483 9.59863Z" fill="#374151"/>
</svg>
