<svg width="30" height="30" viewBox="0 0 30 30" fill="none" xmlns="http://www.w3.org/2000/svg">
<rect x="0.5" y="0.5" width="29" height="29" rx="14.5" fill="white"/>
<rect x="0.5" y="0.5" width="29" height="29" rx="14.5" stroke="#D1D5DB"/>
<path d="M13.37 20.9011C13.7028 21.3189 14.1916 21.5893 14.7282 21.6524C15.2647 21.7155 15.8048 21.5662 16.2288 21.2375C16.3593 21.1403 16.4766 21.0273 16.5781 20.9011M9.33388 16.1913V16.0453C9.3553 15.6134 9.49373 15.1949 9.7349 14.833C10.1363 14.3982 10.4111 13.8655 10.5305 13.2906C10.5305 12.8463 10.5305 12.3956 10.5693 11.9513C10.7698 9.8122 12.8849 8.33325 14.974 8.33325H15.0258C17.115 8.33325 19.23 9.8122 19.437 11.9513C19.4758 12.3956 19.437 12.8463 19.4693 13.2906C19.5903 13.8668 19.8648 14.4012 20.2649 14.8393C20.5079 15.1981 20.6465 15.615 20.6659 16.0453V16.185C20.6804 16.7653 20.4805 17.3311 20.1032 17.7782C19.6046 18.3009 18.9281 18.6261 18.2016 18.6922C16.0713 18.9207 13.922 18.9207 11.7917 18.6922C11.0661 18.6232 10.3905 18.2985 9.89014 17.7782C9.51867 17.3308 9.32149 16.7683 9.33388 16.1913Z" stroke="#9CA3AF" stroke-width="1.5" stroke-linecap="round" stroke-linejoin="round"/>
</svg>
