<svg width="20" height="20" viewBox="0 0 20 20" fill="none" xmlns="http://www.w3.org/2000/svg">
<path d="M15.8333 16.6667H4.16668C3.28262 16.6667 2.43478 16.3156 1.80965 15.6904C1.18453 15.0653 0.833344 14.2175 0.833344 13.3334V10.0001C0.833344 9.11603 1.18453 8.26818 1.80965 7.64306C2.43478 7.01794 3.28262 6.66675 4.16668 6.66675H15.8333C16.7174 6.66675 17.5652 7.01794 18.1904 7.64306C18.8155 8.26818 19.1667 9.11603 19.1667 10.0001V13.3334C19.1667 14.2175 18.8155 15.0653 18.1904 15.6904C17.5652 16.3156 16.7174 16.6667 15.8333 16.6667ZM4.16668 8.33341C3.72465 8.33341 3.30073 8.50901 2.98817 8.82157C2.6756 9.13413 2.50001 9.55805 2.50001 10.0001V13.3334C2.50001 13.7754 2.6756 14.1994 2.98817 14.5119C3.30073 14.8245 3.72465 15.0001 4.16668 15.0001H15.8333C16.2754 15.0001 16.6993 14.8245 17.0119 14.5119C17.3244 14.1994 17.5 13.7754 17.5 13.3334V10.0001C17.5 9.55805 17.3244 9.13413 17.0119 8.82157C16.6993 8.50901 16.2754 8.33341 15.8333 8.33341H4.16668Z" fill="#9CA3AF"/>
<path d="M15.8334 8.33337H4.16669V6.66671C4.16669 5.11961 4.78127 3.63588 5.87523 2.54192C6.96919 1.44796 8.45292 0.833374 10 0.833374C11.5471 0.833374 13.0308 1.44796 14.1248 2.54192C15.2188 3.63588 15.8334 5.11961 15.8334 6.66671V8.33337ZM5.83335 6.66671H14.1667C14.1667 5.56164 13.7277 4.50183 12.9463 3.72043C12.1649 2.93903 11.1051 2.50004 10 2.50004C8.89495 2.50004 7.83514 2.93903 7.05374 3.72043C6.27234 4.50183 5.83335 5.56164 5.83335 6.66671Z" fill="#9CA3AF"/>
<path d="M15.8334 7.5H4.16669C3.50365 7.5 2.86776 7.76339 2.39892 8.23223C1.93008 8.70107 1.66669 9.33696 1.66669 10V13.3333C1.66669 13.9964 1.93008 14.6323 2.39892 15.1011C2.86776 15.5699 3.50365 15.8333 4.16669 15.8333H15.8334C16.4964 15.8333 17.1323 15.5699 17.6011 15.1011C18.07 14.6323 18.3334 13.9964 18.3334 13.3333V10C18.3334 9.33696 18.07 8.70107 17.6011 8.23223C17.1323 7.76339 16.4964 7.5 15.8334 7.5ZM5.00002 12.5C4.8352 12.5 4.67409 12.4511 4.53705 12.3596C4.4 12.268 4.29319 12.1378 4.23012 11.9856C4.16705 11.8333 4.15054 11.6657 4.1827 11.5041C4.21485 11.3424 4.29422 11.194 4.41076 11.0774C4.52731 10.9609 4.67579 10.8815 4.83745 10.8493C4.9991 10.8172 5.16665 10.8337 5.31892 10.8968C5.47119 10.9598 5.60134 11.0667 5.69291 11.2037C5.78448 11.3407 5.83335 11.5018 5.83335 11.6667C5.83335 11.8877 5.74556 12.0996 5.58928 12.2559C5.433 12.4122 5.22103 12.5 5.00002 12.5ZM8.33335 12.5C8.16854 12.5 8.00742 12.4511 7.87038 12.3596C7.73334 12.268 7.62653 12.1378 7.56345 11.9856C7.50038 11.8333 7.48388 11.6657 7.51603 11.5041C7.54819 11.3424 7.62755 11.194 7.7441 11.0774C7.86064 10.9609 8.00913 10.8815 8.17078 10.8493C8.33243 10.8172 8.49998 10.8337 8.65226 10.8968C8.80453 10.9598 8.93468 11.0667 9.02624 11.2037C9.11781 11.3407 9.16669 11.5018 9.16669 11.6667C9.16669 11.8877 9.07889 12.0996 8.92261 12.2559C8.76633 12.4122 8.55437 12.5 8.33335 12.5ZM11.6667 12.5C11.5019 12.5 11.3408 12.4511 11.2037 12.3596C11.0667 12.268 10.9599 12.1378 10.8968 11.9856C10.8337 11.8333 10.8172 11.6657 10.8494 11.5041C10.8815 11.3424 10.9609 11.194 11.0774 11.0774C11.194 10.9609 11.3425 10.8815 11.5041 10.8493C11.6658 10.8172 11.8333 10.8337 11.9856 10.8968C12.1379 10.9598 12.268 11.0667 12.3596 11.2037C12.4511 11.3407 12.5 11.5018 12.5 11.6667C12.5 11.8877 12.4122 12.0996 12.2559 12.2559C12.0997 12.4122 11.8877 12.5 11.6667 12.5ZM15 12.5C14.8352 12.5 14.6741 12.4511 14.537 12.3596C14.4 12.268 14.2932 12.1378 14.2301 11.9856C14.167 11.8333 14.1505 11.6657 14.1827 11.5041C14.2149 11.3424 14.2942 11.194 14.4108 11.0774C14.5273 10.9609 14.6758 10.8815 14.8374 10.8493C14.9991 10.8172 15.1667 10.8337 15.3189 10.8968C15.4712 10.9598 15.6013 11.0667 15.6929 11.2037C15.7845 11.3407 15.8334 11.5018 15.8334 11.6667C15.8334 11.8877 15.7456 12.0996 15.5893 12.2559C15.433 12.4122 15.221 12.5 15 12.5Z" fill="#9CA3AF"/>
</svg>
