<svg width="25" height="21" viewBox="0 0 25 21" fill="none" xmlns="http://www.w3.org/2000/svg">
<g clip-path="url(#clip0_80_549)">
<path d="M12.5 0C10.4401 0 8.42648 0.610829 6.71374 1.75524C5.001 2.89966 3.66608 4.52626 2.8778 6.42935C2.08951 8.33244 1.88326 10.4266 2.28513 12.4469C2.68699 14.4672 3.67892 16.3229 5.13549 17.7795C6.59205 19.2361 8.44782 20.228 10.4681 20.6299C12.4884 21.0317 14.5826 20.8255 16.4856 20.0372C18.3887 19.2489 20.0153 17.914 21.1598 16.2013C22.3042 14.4885 22.915 12.4749 22.915 10.415C22.9127 7.65347 21.8147 5.00571 19.862 3.05302C17.9093 1.10033 15.2615 0.0022984 12.5 0ZM10.7642 13.0187C10.7642 13.2489 10.6727 13.4697 10.51 13.6325C10.3472 13.7952 10.1264 13.8867 9.89625 13.8867C9.66607 13.8867 9.44531 13.7952 9.28254 13.6325C9.11978 13.4697 9.02834 13.2489 9.02834 13.0187V7.81125C9.02834 7.58106 9.11978 7.3603 9.28254 7.19754C9.44531 7.03477 9.66607 6.94333 9.89625 6.94333C10.1264 6.94333 10.3472 7.03477 10.51 7.19754C10.6727 7.3603 10.7642 7.58106 10.7642 7.81125V13.0187ZM15.9717 13.0187C15.9717 13.2489 15.8802 13.4697 15.7175 13.6325C15.5547 13.7952 15.3339 13.8867 15.1038 13.8867C14.8736 13.8867 14.6528 13.7952 14.49 13.6325C14.3273 13.4697 14.2358 13.2489 14.2358 13.0187V7.81125C14.2358 7.58106 14.3273 7.3603 14.49 7.19754C14.6528 7.03477 14.8736 6.94333 15.1038 6.94333C15.3339 6.94333 15.5547 7.03477 15.7175 7.19754C15.8802 7.3603 15.9717 7.58106 15.9717 7.81125V13.0187Z" fill="white"/>
</g>
<defs>
<clipPath id="clip0_80_549">
<rect width="25" height="20.83" fill="white"/>
</clipPath>
</defs>
</svg>
