<svg width="16" height="16" viewBox="0 0 16 16" fill="none" xmlns="http://www.w3.org/2000/svg">
<g clip-path="url(#clip0_93_131)">
<path d="M8 0C6.41775 0 4.87104 0.469192 3.55544 1.34824C2.23985 2.22729 1.21447 3.47672 0.608967 4.93853C0.00346629 6.40034 -0.15496 8.00887 0.153721 9.56072C0.462403 11.1126 1.22433 12.538 2.34315 13.6569C3.46197 14.7757 4.88743 15.5376 6.43928 15.8463C7.99113 16.155 9.59966 15.9965 11.0615 15.391C12.5233 14.7855 13.7727 13.7602 14.6518 12.4446C15.5308 11.129 16 9.58225 16 8C15.9982 5.87881 15.1548 3.845 13.6549 2.3451C12.155 0.845187 10.1212 0.00176545 8 0ZM6.66667 10C6.66667 10.1768 6.59643 10.3464 6.47141 10.4714C6.34638 10.5964 6.17682 10.6667 6 10.6667C5.82319 10.6667 5.65362 10.5964 5.5286 10.4714C5.40358 10.3464 5.33334 10.1768 5.33334 10V6C5.33334 5.82319 5.40358 5.65362 5.5286 5.5286C5.65362 5.40357 5.82319 5.33333 6 5.33333C6.17682 5.33333 6.34638 5.40357 6.47141 5.5286C6.59643 5.65362 6.66667 5.82319 6.66667 6V10ZM10.6667 10C10.6667 10.1768 10.5964 10.3464 10.4714 10.4714C10.3464 10.5964 10.1768 10.6667 10 10.6667C9.82319 10.6667 9.65362 10.5964 9.5286 10.4714C9.40358 10.3464 9.33334 10.1768 9.33334 10V6C9.33334 5.82319 9.40358 5.65362 9.5286 5.5286C9.65362 5.40357 9.82319 5.33333 10 5.33333C10.1768 5.33333 10.3464 5.40357 10.4714 5.5286C10.5964 5.65362 10.6667 5.82319 10.6667 6V10Z" fill="#FFCF10"/>
</g>
<defs>
<clipPath id="clip0_93_131">
<rect width="16" height="16" fill="white"/>
</clipPath>
</defs>
</svg>
