<svg width="20" height="20" viewBox="0 0 20 20" fill="none" xmlns="http://www.w3.org/2000/svg">
<path d="M15.8333 6.66675C15.2443 6.66563 14.6739 6.87301 14.2231 7.25216C13.7724 7.63131 13.4703 8.15776 13.3705 8.73827C13.2707 9.31877 13.3796 9.91587 13.6778 10.4238C13.9761 10.9317 14.4444 11.3177 15 11.5134V12.9167C15 13.9113 14.6049 14.8651 13.9017 15.5684C13.1984 16.2717 12.2446 16.6667 11.25 16.6667C10.2554 16.6667 9.30162 16.2717 8.59836 15.5684C7.89509 14.8651 7.50001 13.9113 7.50001 12.9167V12.4251C8.66393 12.2277 9.72057 11.625 10.4831 10.7238C11.2456 9.8225 11.6648 8.68063 11.6667 7.50008V2.50008C11.6667 2.27907 11.5789 2.06711 11.4226 1.91083C11.2663 1.75455 11.0544 1.66675 10.8333 1.66675H9.16667C8.94566 1.66675 8.7337 1.75455 8.57742 1.91083C8.42114 2.06711 8.33334 2.27907 8.33334 2.50008C8.33334 2.7211 8.42114 2.93306 8.57742 3.08934C8.7337 3.24562 8.94566 3.33341 9.16667 3.33341H10V7.50008C10 8.38414 9.64882 9.23198 9.02369 9.8571C8.39857 10.4822 7.55073 10.8334 6.66667 10.8334C5.78262 10.8334 4.93477 10.4822 4.30965 9.8571C3.68453 9.23198 3.33334 8.38414 3.33334 7.50008V3.33341H4.16667C4.38769 3.33341 4.59965 3.24562 4.75593 3.08934C4.91221 2.93306 5.00001 2.7211 5.00001 2.50008C5.00001 2.27907 4.91221 2.06711 4.75593 1.91083C4.59965 1.75455 4.38769 1.66675 4.16667 1.66675H2.50001C2.27899 1.66675 2.06703 1.75455 1.91075 1.91083C1.75447 2.06711 1.66667 2.27907 1.66667 2.50008V7.50008C1.66853 8.68063 2.08778 9.8225 2.85028 10.7238C3.61278 11.625 4.66941 12.2277 5.83334 12.4251V12.9167C5.83334 14.3533 6.40402 15.7311 7.41984 16.7469C8.43567 17.7627 9.81342 18.3334 11.25 18.3334C12.6866 18.3334 14.0643 17.7627 15.0802 16.7469C16.096 15.7311 16.6667 14.3533 16.6667 12.9167V11.5134C17.2222 11.3177 17.6906 10.9317 17.9889 10.4238C18.2871 9.91587 18.396 9.31877 18.2962 8.73827C18.1964 8.15776 17.8943 7.63131 17.4435 7.25216C16.9928 6.87301 16.4224 6.66563 15.8333 6.66675ZM15.8333 10.0001C15.6685 10.0001 15.5074 9.95121 15.3704 9.85964C15.2333 9.76807 15.1265 9.63792 15.0634 9.48565C15.0004 9.33338 14.9839 9.16582 15.016 9.00417C15.0482 8.84252 15.1275 8.69404 15.2441 8.57749C15.3606 8.46095 15.5091 8.38158 15.6708 8.34943C15.8324 8.31727 16 8.33378 16.1522 8.39685C16.3045 8.45992 16.4347 8.56673 16.5262 8.70377C16.6178 8.84081 16.6667 9.00193 16.6667 9.16675C16.6665 9.38769 16.5786 9.59953 16.4224 9.75576C16.2661 9.91199 16.0543 9.99986 15.8333 10.0001Z" fill="white"/>
</svg>
