<svg width="25" height="25" viewBox="0 0 25 25" fill="none" xmlns="http://www.w3.org/2000/svg">
<path d="M22.0703 2.19727H20.0439V1.31836C20.0439 0.968709 19.905 0.633379 19.6578 0.386139C19.4106 0.138898 19.0752 0 18.7256 0C18.3759 0 18.0406 0.138898 17.7934 0.386139C17.5461 0.633379 17.4072 0.968709 17.4072 1.31836V2.19727H7.59277V1.31836C7.59277 0.968709 7.45388 0.633379 7.20663 0.386139C6.95939 0.138898 6.62406 2.77823e-08 6.27441 2.77823e-08C5.92476 2.77823e-08 5.58943 0.138898 5.34219 0.386139C5.09495 0.633379 4.95605 0.968709 4.95605 1.31836V2.19727H2.92969C2.44423 2.19781 1.97881 2.3909 1.63554 2.73417C1.29226 3.07744 1.09918 3.54286 1.09863 4.02832V23.1689C1.09918 23.6544 1.29226 24.1198 1.63554 24.4631C1.97881 24.8064 2.44423 24.9995 2.92969 25H22.0703C22.5558 24.9995 23.0212 24.8064 23.3645 24.4631C23.7077 24.1198 23.9008 23.6544 23.9014 23.1689V4.02832C23.9008 3.54286 23.7077 3.07744 23.3645 2.73417C23.0212 2.3909 22.5558 2.19781 22.0703 2.19727ZM18.1396 1.31836C18.1396 1.16296 18.2014 1.01392 18.3113 0.904039C18.4212 0.794154 18.5702 0.732422 18.7256 0.732422C18.881 0.732422 19.03 0.794154 19.1399 0.904039C19.2498 1.01392 19.3115 1.16296 19.3115 1.31836V3.89551C19.3115 4.05091 19.2498 4.19994 19.1399 4.30983C19.03 4.41971 18.881 4.48145 18.7256 4.48145C18.5702 4.48145 18.4212 4.41971 18.3113 4.30983C18.2014 4.19994 18.1396 4.05091 18.1396 3.89551V1.31836ZM5.68848 1.31836C5.68848 1.16296 5.75021 1.01392 5.86009 0.904039C5.96998 0.794154 6.11901 0.732422 6.27441 0.732422C6.42981 0.732422 6.57885 0.794154 6.68873 0.904039C6.79862 1.01392 6.86035 1.16296 6.86035 1.31836V3.89551C6.86035 4.05091 6.79862 4.19994 6.68873 4.30983C6.57885 4.41971 6.42981 4.48145 6.27441 4.48145C6.11901 4.48145 5.96998 4.41971 5.86009 4.30983C5.75021 4.19994 5.68848 4.05091 5.68848 3.89551V1.31836ZM23.1689 23.1689C23.1686 23.4602 23.0528 23.7395 22.8468 23.9454C22.6408 24.1514 22.3616 24.2672 22.0703 24.2676H2.92969C2.63842 24.2672 2.35917 24.1514 2.15321 23.9454C1.94725 23.7395 1.83139 23.4602 1.83105 23.1689V7.61558H23.1689V23.1689ZM23.1689 6.88315H1.83105V4.02832C1.83139 3.73705 1.94725 3.4578 2.15321 3.25184C2.35917 3.04588 2.63842 2.93002 2.92969 2.92969H4.95605V3.89551C4.95605 4.24516 5.09495 4.58049 5.34219 4.82773C5.58943 5.07497 5.92476 5.21387 6.27441 5.21387C6.62406 5.21387 6.95939 5.07497 7.20663 4.82773C7.45388 4.58049 7.59277 4.24516 7.59277 3.89551V2.92969H17.4072V3.89551C17.4072 4.24516 17.5461 4.58049 17.7934 4.82773C18.0406 5.07497 18.3759 5.21387 18.7256 5.21387C19.0752 5.21387 19.4106 5.07497 19.6578 4.82773C19.905 4.58049 20.0439 4.24516 20.0439 3.89551V2.92969H22.0703C22.3616 2.93002 22.6408 3.04588 22.8468 3.25184C23.0528 3.4578 23.1686 3.73705 23.1689 4.02832V6.88315ZM21.3379 22.8024C21.4103 22.8024 21.4811 22.781 21.5413 22.7407C21.6016 22.7005 21.6485 22.6433 21.6762 22.5764C21.7039 22.5095 21.7112 22.4358 21.6971 22.3648C21.6829 22.2937 21.6481 22.2285 21.5968 22.1773C21.5456 22.1261 21.4804 22.0912 21.4093 22.0771C21.3383 22.0629 21.2647 22.0702 21.1977 22.0979C21.1308 22.1256 21.0736 22.1726 21.0334 22.2328C20.9932 22.293 20.9717 22.3638 20.9717 22.4362C20.9717 22.5334 21.0103 22.6265 21.0789 22.6952C21.1476 22.7639 21.2408 22.8024 21.3379 22.8024ZM16.5348 14.4434C16.5348 14.3709 16.5133 14.3001 16.473 14.2399C16.4328 14.1797 16.3756 14.1327 16.3087 14.105C16.2418 14.0773 16.1681 14.0701 16.0971 14.0842C16.0261 14.0983 15.9608 14.1332 15.9096 14.1844C15.8584 14.2356 15.8235 14.3009 15.8094 14.3719C15.7953 14.443 15.8025 14.5166 15.8302 14.5835C15.8579 14.6504 15.9049 14.7076 15.9651 14.7479C16.0253 14.7881 16.0961 14.8096 16.1686 14.8096C16.2657 14.8096 16.3588 14.771 16.4275 14.7023C16.4962 14.6336 16.5348 14.5405 16.5348 14.4434ZM9.96094 17.2067V18.816C9.96094 19.6877 10.3072 20.5238 10.9237 21.1402C11.5401 21.7566 12.3761 22.1029 13.2479 22.1029C14.1196 22.1029 14.9556 21.7566 15.5721 21.1402C16.1885 20.5238 16.5348 19.6877 16.5348 18.816V16.2375C16.9794 16.1468 17.3744 15.8942 17.6434 15.5287C17.9123 15.1632 18.0359 14.7109 17.9903 14.2595C17.9447 13.808 17.7331 13.3895 17.3965 13.0852C17.0599 12.7809 16.6223 12.6124 16.1686 12.6124C15.7148 12.6124 15.2772 12.7809 14.9406 13.0852C14.604 13.3895 14.3924 13.808 14.3468 14.2595C14.3012 14.7109 14.4248 15.1632 14.6938 15.5287C14.9627 15.8942 15.3577 16.1468 15.8023 16.2375V18.816C15.8023 19.4935 15.5332 20.1432 15.0541 20.6223C14.5751 21.1013 13.9253 21.3705 13.2479 21.3705C12.5704 21.3705 11.9206 21.1013 11.4416 20.6223C10.9625 20.1432 10.6934 19.4935 10.6934 18.816V17.2067C11.5312 17.1154 12.3058 16.7181 12.8689 16.0911C13.4321 15.4641 13.744 14.6514 13.7451 13.8086V11.0498C13.7449 10.875 13.6754 10.7075 13.5518 10.5839C13.4283 10.4603 13.2607 10.3908 13.0859 10.3906H12.4322C12.3516 10.251 12.2271 10.1419 12.0782 10.0802C11.9292 10.0185 11.7641 10.0076 11.6083 10.0494C11.4526 10.0911 11.315 10.1831 11.2168 10.311C11.1187 10.4389 11.0655 10.5956 11.0655 10.7568C11.0655 10.9181 11.1187 11.0748 11.2168 11.2027C11.315 11.3306 11.4526 11.4226 11.6083 11.4643C11.7641 11.506 11.9292 11.4952 12.0782 11.4335C12.2271 11.3718 12.3516 11.2627 12.4322 11.123H13.0127V13.8086C13.0127 14.5208 12.7298 15.2039 12.2261 15.7076C11.7225 16.2112 11.0394 16.4941 10.3271 16.4941C9.6149 16.4941 8.93182 16.2112 8.42818 15.7076C7.92454 15.2039 7.6416 14.5208 7.6416 13.8086V11.123H8.23525C8.31587 11.2627 8.44031 11.3718 8.58926 11.4335C8.73822 11.4952 8.90338 11.506 9.05911 11.4643C9.21485 11.4226 9.35247 11.3306 9.45062 11.2027C9.54877 11.0748 9.60197 10.9181 9.60197 10.7568C9.60197 10.5956 9.54877 10.4389 9.45062 10.311C9.35247 10.1831 9.21485 10.0911 9.05911 10.0494C8.90338 10.0076 8.73822 10.0185 8.58926 10.0802C8.44031 10.1419 8.31587 10.251 8.23525 10.3906H7.56836C7.39359 10.3908 7.22604 10.4603 7.10246 10.5839C6.97889 10.7075 6.90937 10.875 6.90918 11.0498V13.8086C6.91026 14.6514 7.22225 15.4641 7.78536 16.0911C8.34848 16.7181 9.12313 17.1154 9.96094 17.2067ZM15.0699 14.4434C15.0699 14.2261 15.1344 14.0137 15.2551 13.833C15.3758 13.6523 15.5474 13.5115 15.7481 13.4284C15.9489 13.3452 16.1698 13.3234 16.3829 13.3658C16.596 13.4082 16.7918 13.5129 16.9454 13.6665C17.0991 13.8202 17.2037 14.0159 17.2461 14.229C17.2885 14.4421 17.2667 14.663 17.1836 14.8638C17.1004 15.0645 16.9596 15.2361 16.7789 15.3568C16.5983 15.4776 16.3858 15.542 16.1686 15.542C15.8773 15.5417 15.598 15.4258 15.3921 15.2198C15.1861 15.0139 15.0703 14.7346 15.0699 14.4434ZM18.4082 22.8024C18.4806 22.8024 18.5514 22.781 18.6117 22.7407C18.6719 22.7005 18.7188 22.6433 18.7465 22.5764C18.7743 22.5095 18.7815 22.4358 18.7674 22.3648C18.7532 22.2937 18.7184 22.2285 18.6672 22.1773C18.6159 22.1261 18.5507 22.0912 18.4796 22.0771C18.4086 22.0629 18.335 22.0702 18.2681 22.0979C18.2011 22.1256 18.1439 22.1726 18.1037 22.2328C18.0635 22.293 18.042 22.3638 18.042 22.4362C18.042 22.5334 18.0806 22.6265 18.1493 22.6952C18.2179 22.7639 18.3111 22.8024 18.4082 22.8024ZM19.873 22.8024C19.9455 22.8024 20.0163 22.781 20.0765 22.7407C20.1367 22.7005 20.1837 22.6433 20.2114 22.5764C20.2391 22.5095 20.2464 22.4358 20.2322 22.3648C20.2181 22.2937 20.1832 22.2285 20.132 22.1773C20.0808 22.1261 20.0155 22.0912 19.9445 22.0771C19.8735 22.0629 19.7998 22.0702 19.7329 22.0979C19.666 22.1256 19.6088 22.1726 19.5686 22.2328C19.5283 22.293 19.5068 22.3638 19.5068 22.4362C19.5068 22.5334 19.5454 22.6265 19.6141 22.6952C19.6828 22.7639 19.7759 22.8024 19.873 22.8024Z" fill="#9CA3AF"/>
</svg>
