<svg width="18" height="18" viewBox="0 0 18 18" fill="none" xmlns="http://www.w3.org/2000/svg">
<path d="M8.99985 3.63119L8.2242 3.05101C7.16971 2.25908 5.41432 1.76192 3.40308 2.99561C0.763552 4.6147 0.166289 9.95618 6.25465 14.4626C7.41429 15.3209 7.9941 15.75 9 15.75C10.0059 15.75 10.5857 15.3209 11.7454 14.4626C12.9238 13.5903 13.8517 12.6867 14.563 11.785C17.526 8.02785 16.7255 4.30131 14.597 2.99561C12.5857 1.76192 10.8303 2.25908 9.7758 3.05101L8.99985 3.63119ZM14.563 11.785L10.4191 7.08359C10.2494 6.89115 9.96547 6.84972 9.7479 6.98568L8.10832 8.01045C7.53135 8.37105 6.7825 8.2899 6.29617 7.81403C5.65378 7.18547 5.71859 6.13327 6.43327 5.5883L8.99985 3.63119" stroke="white" stroke-width="1.125" stroke-linecap="round" stroke-linejoin="round"/>
</svg>
