<svg width="25" height="25" viewBox="0 0 25 25" fill="none" xmlns="http://www.w3.org/2000/svg">
<g clip-path="url(#clip0_77_192)">
<path d="M13.5417 25H11.4583C10.5969 25 9.89583 24.299 9.89583 23.4375V21.4979C9.22909 21.3052 8.58602 21.0384 7.97865 20.7026L6.60677 22.075C6.01615 22.6656 4.9875 22.6646 4.39687 22.075L2.92344 20.6021C2.62812 20.3073 2.46563 19.9146 2.46563 19.4974C2.46563 19.0802 2.62812 18.6875 2.92344 18.3927L4.29583 17.0198C3.95999 16.4129 3.69355 15.7702 3.50156 15.1036H1.5625C0.701042 15.1036 0 14.4026 0 13.5411V11.4578C0 11.0401 0.1625 10.6479 0.457292 10.3531C0.602137 10.2076 0.774384 10.0922 0.964083 10.0136C1.15378 9.93504 1.35717 9.89483 1.5625 9.89531H3.50208C3.69479 9.22969 3.96042 8.5875 4.29688 7.97917L2.925 6.60677C2.63233 6.31362 2.46795 5.91632 2.46795 5.50208C2.46795 5.08785 2.63233 4.69054 2.925 4.3974L4.39792 2.92396C4.98802 2.33437 6.01719 2.33333 6.60781 2.92396L7.98021 4.29635C8.58712 3.96096 9.22966 3.69454 9.89583 3.50208V1.5625C9.89583 0.701042 10.5969 0 11.4583 0H13.5417C14.4031 0 15.1042 0.701042 15.1042 1.5625V3.50208C15.7708 3.69479 16.4125 3.96094 17.0198 4.29635L18.3922 2.92396C18.9828 2.33437 20.0115 2.33333 20.6021 2.92396L22.0755 4.39687C22.3708 4.69167 22.5333 5.08437 22.5333 5.50156C22.5333 5.91875 22.3708 6.31146 22.0755 6.60625L20.7036 7.97865C21.0396 8.58571 21.3062 9.22864 21.4984 9.89531H23.4375C24.299 9.89531 25 10.5964 25 11.4578V13.5411C25 13.9589 24.8375 14.351 24.5427 14.6458C24.2479 14.9406 23.8552 15.1036 23.4375 15.1036H21.4979C21.3053 15.7702 21.0387 16.4131 20.7031 17.0203L22.075 18.3927C22.3677 18.6859 22.532 19.0832 22.532 19.4974C22.532 19.9116 22.3677 20.3089 22.075 20.6021L20.6021 22.0755C20.0115 22.6656 18.9828 22.6656 18.3922 22.0755L17.0208 20.7031C16.4138 21.0387 15.771 21.3053 15.1047 21.4979V23.4375C15.104 23.8518 14.9391 24.2489 14.6461 24.5418C14.3531 24.8347 13.9559 24.9994 13.5417 25ZM7.89427 19.5302C7.9875 19.5302 8.08177 19.5552 8.16562 19.6062C8.90062 20.0562 9.70143 20.3885 10.5391 20.5911C10.6526 20.6186 10.7537 20.6835 10.8259 20.7753C10.8982 20.8671 10.9375 20.9805 10.9375 21.0974V23.4375C10.9375 23.725 11.1714 23.9583 11.4583 23.9583H13.5417C13.8286 23.9583 14.0625 23.725 14.0625 23.4375V21.0974C14.0625 20.9805 14.1018 20.8671 14.1741 20.7753C14.2463 20.6835 14.3474 20.6186 14.4609 20.5911C15.2984 20.3886 16.099 20.0565 16.8339 19.6068C17.0401 19.4812 17.3036 19.513 17.474 19.6828L19.1292 21.3385C19.3245 21.5333 19.6703 21.5344 19.8661 21.3385L21.3391 19.8651C21.4367 19.7674 21.4916 19.635 21.4916 19.4969C21.4916 19.3588 21.4367 19.2263 21.3391 19.1286L19.6833 17.4729C19.6006 17.3902 19.5482 17.2822 19.5344 17.166C19.5206 17.0499 19.5463 16.9326 19.6073 16.8328C20.057 16.098 20.3889 15.2973 20.5911 14.4599C20.6185 14.3462 20.6833 14.2451 20.7751 14.1727C20.867 14.1003 20.9805 14.061 21.0974 14.0609H23.4375C23.5059 14.0612 23.5737 14.048 23.6369 14.022C23.7001 13.9959 23.7576 13.9577 23.806 13.9094C23.8544 13.8611 23.8928 13.8037 23.9189 13.7405C23.9451 13.6773 23.9585 13.6095 23.9583 13.5411V11.4578C23.9583 11.1703 23.7245 10.937 23.4375 10.937H21.0974C20.9805 10.937 20.8669 10.8977 20.7751 10.8253C20.6832 10.7529 20.6184 10.6517 20.5911 10.538C20.389 9.70056 20.0571 8.89989 19.6073 8.1651C19.5463 8.06536 19.5206 7.94799 19.5344 7.83187C19.5482 7.71576 19.6006 7.60767 19.6833 7.525L21.3391 5.86927C21.4359 5.77187 21.4917 5.63802 21.4917 5.50104C21.4917 5.36406 21.4359 5.22969 21.3391 5.13281L19.8656 3.6599C19.7662 3.56541 19.6343 3.51272 19.4971 3.51272C19.36 3.51272 19.2281 3.56541 19.1286 3.6599L17.4729 5.31563C17.3905 5.39872 17.2824 5.45147 17.1661 5.46528C17.0499 5.47909 16.9324 5.45314 16.8328 5.39167C16.0983 4.94211 15.298 4.61015 14.4609 4.40781C14.3474 4.38065 14.2463 4.31602 14.174 4.22435C14.1018 4.13269 14.0625 4.01934 14.0625 3.9026V1.5625C14.0625 1.275 13.8286 1.04167 13.5417 1.04167H11.4583C11.1714 1.04167 10.9375 1.275 10.9375 1.5625V3.9026C10.9375 4.01945 10.8982 4.1329 10.8259 4.22472C10.7537 4.31654 10.6526 4.3814 10.5391 4.40885C9.70166 4.61117 8.90102 4.94312 8.16615 5.39271C8.06651 5.45378 7.9492 5.47949 7.83316 5.46569C7.71711 5.45189 7.6091 5.39939 7.52656 5.31667L5.87083 3.66094C5.77141 3.56645 5.6395 3.51376 5.50234 3.51376C5.36519 3.51376 5.23327 3.56645 5.13385 3.66094L3.66146 5.13385C3.56382 5.23152 3.50897 5.36398 3.50897 5.50208C3.50897 5.64019 3.56382 5.77264 3.66146 5.87031L5.31719 7.52604C5.39987 7.60871 5.45234 7.71681 5.46613 7.83292C5.47992 7.94903 5.45425 8.0664 5.39323 8.16615C4.94356 8.9008 4.6116 9.70127 4.40937 10.5385C4.38202 10.6522 4.31721 10.7534 4.22538 10.8257C4.13355 10.8981 4.02004 10.9375 3.90312 10.9375H1.5625C1.49407 10.9372 1.42626 10.9505 1.36298 10.9765C1.2997 11.0026 1.2422 11.0409 1.19379 11.0892C1.14537 11.1376 1.10701 11.1951 1.0809 11.2583C1.05479 11.3216 1.04146 11.3894 1.04167 11.4578V13.5411C1.04167 13.8286 1.27552 14.062 1.5625 14.062H3.9026C4.14323 14.062 4.3526 14.2266 4.40885 14.4609C4.61116 15.2982 4.94312 16.0986 5.39271 16.8333C5.45372 16.9331 5.4794 17.0505 5.46561 17.1666C5.45182 17.2827 5.39935 17.3908 5.31667 17.4734L3.66094 19.1297C3.56406 19.2271 3.50833 19.3609 3.50833 19.4979C3.50833 19.6349 3.56406 19.7693 3.66094 19.8661L5.13437 21.3391C5.23379 21.4335 5.36571 21.4862 5.50286 21.4862C5.64002 21.4862 5.77194 21.4335 5.87135 21.3391L7.52656 19.6833C7.57464 19.6347 7.63191 19.5961 7.69503 19.5698C7.75816 19.5435 7.82589 19.5301 7.89427 19.5302Z" fill="#018BBB"/>
<path d="M12.5 17.7084C9.62813 17.7084 7.29167 15.372 7.29167 12.5001C7.29167 9.62821 9.62813 7.29175 12.5 7.29175C15.3719 7.29175 17.7083 9.62821 17.7083 12.5001C17.7083 15.372 15.3724 17.7084 12.5 17.7084ZM12.5 8.33341C10.2026 8.33341 8.33334 10.2027 8.33334 12.5001C8.33334 14.7975 10.2026 16.6667 12.5 16.6667C14.7974 16.6667 16.6667 14.7975 16.6667 12.5001C16.6667 10.2027 14.7979 8.33341 12.5 8.33341Z" fill="#018BBB"/>
</g>
<defs>
<clipPath id="clip0_77_192">
<rect width="25" height="25" fill="white"/>
</clipPath>
</defs>
</svg>
