<svg width="24" height="24" viewBox="0 0 24 24" fill="none" xmlns="http://www.w3.org/2000/svg">
<path d="M18.5448 10.9657C18.8779 11.3155 19.039 11.4845 19.0874 11.8877C19.1078 12.0782 19.0873 12.2708 19.027 12.4526C18.9669 12.6344 18.8685 12.8013 18.7384 12.942C18.6085 13.0826 18.4499 13.1939 18.2733 13.2682C18.0968 13.3424 17.9064 13.3781 17.7149 13.3727C17.7252 13.4837 17.7362 13.5935 17.7471 13.7022C17.7841 14.071 17.8199 14.4278 17.8199 14.7752C17.822 14.8881 17.7802 14.9974 17.7032 15.08C17.6262 15.1625 17.5201 15.2119 17.4074 15.2177L16.1474 15.2627C16.1055 15.2882 16.0708 15.3239 16.0468 15.3666C16.0228 15.4093 16.0101 15.4575 16.0101 15.5065C16.0101 15.5555 16.0228 15.6037 16.0468 15.6464C16.0708 15.689 16.1055 15.7248 16.1474 15.7502L17.3999 16.5527C17.5021 16.6169 17.5817 16.7114 17.6274 16.823C17.6731 16.9347 17.6828 17.0579 17.6549 17.1752C17.2424 18.7052 16.1474 19.7552 13.6799 20.0627C13.2046 20.118 12.7258 20.1381 12.2474 20.1227C12.0575 20.117 11.8705 20.1722 11.7141 20.2802C11.5576 20.3881 11.4397 20.5431 11.3774 20.7227L10.8374 22.2227H3.33744L4.97244 17.0552C5.13549 16.5353 5.08699 15.9721 4.83744 15.4877C3.94494 13.7777 2.51994 10.8227 2.29494 9.00023C2.10807 7.52828 2.51352 6.04241 3.42211 4.8694C4.33071 3.69638 5.66803 2.93231 7.13994 2.74523L10.7474 2.29523C12.2166 2.11691 13.6966 2.52712 14.8643 3.43628C16.0321 4.34545 16.7926 5.67971 16.9799 7.14773L17.2649 9.39773C17.8441 10.2302 18.2581 10.6648 18.5448 10.9657ZM22.8524 16.5752V15.1202C22.8595 15.0704 22.8541 15.0197 22.8364 14.9726C22.8187 14.9255 22.7895 14.8835 22.7514 14.8507C22.7134 14.8178 22.6676 14.795 22.6184 14.7845C22.5692 14.774 22.5181 14.7759 22.4699 14.7902L20.0399 15.5402C19.9799 15.56 19.9276 15.5981 19.8906 15.6494C19.8535 15.7005 19.8336 15.7621 19.8336 15.8252C19.8336 15.8885 19.8535 15.95 19.8906 16.0012C19.9276 16.0523 19.9799 16.0905 20.0399 16.1102L22.4699 16.8602C22.5143 16.873 22.561 16.8752 22.6064 16.8669C22.6518 16.8587 22.6947 16.84 22.7317 16.8124C22.7687 16.7848 22.7989 16.7491 22.8198 16.7079C22.8407 16.6668 22.8519 16.6214 22.8524 16.5752ZM20.7899 12.0002L21.8174 13.0277C21.8498 13.0607 21.8742 13.1006 21.8887 13.1445C21.9031 13.1884 21.9072 13.235 21.9007 13.2807C21.8941 13.3265 21.8772 13.37 21.851 13.4081C21.8249 13.4462 21.7903 13.4777 21.7499 13.5002L19.4999 14.7002C19.444 14.7282 19.3808 14.738 19.319 14.7284C19.2573 14.7186 19.2001 14.6899 19.1555 14.6461C19.1109 14.6023 19.0811 14.5457 19.0702 14.4841C19.0594 14.4226 19.068 14.3591 19.0949 14.3027L20.2949 12.0527C20.3179 12.0093 20.3512 11.9722 20.392 11.9446C20.4327 11.9171 20.4796 11.9 20.5285 11.8947C20.5774 11.8895 20.6268 11.8964 20.6723 11.9149C20.7179 11.9333 20.7583 11.9626 20.7899 12.0002ZM21.8174 18.6827L20.7899 19.7102C20.7583 19.7479 20.7179 19.7772 20.6723 19.7956C20.6268 19.814 20.5774 19.8209 20.5285 19.8158C20.4796 19.8106 20.4327 19.7934 20.392 19.7659C20.3512 19.7383 20.3179 19.7012 20.2949 19.6577L19.0949 17.4077C19.068 17.3513 19.0594 17.2879 19.0702 17.2264C19.0811 17.1648 19.1109 17.1082 19.1555 17.0644C19.2001 17.0206 19.2573 16.9918 19.319 16.9822C19.3808 16.9724 19.444 16.9823 19.4999 17.0102L21.7499 18.2102C21.7903 18.2327 21.8249 18.2642 21.851 18.3023C21.8772 18.3404 21.8941 18.384 21.9007 18.4298C21.9072 18.4755 21.9031 18.5221 21.8887 18.566C21.8742 18.6098 21.8498 18.6498 21.8174 18.6827Z" fill="#374151"/>
</svg>
