<svg width="20" height="20" viewBox="0 0 20 20" fill="none" xmlns="http://www.w3.org/2000/svg">
<path d="M9.99999 5.00008C9.89055 5.00005 9.78218 5.02159 9.68106 5.06346C9.57994 5.10533 9.48806 5.16671 9.41067 5.2441C9.33329 5.32148 9.2719 5.41336 9.23004 5.51448C9.18817 5.6156 9.16663 5.72397 9.16666 5.83342V9.48657L7.14111 10.5059C7.04338 10.555 6.95628 10.6229 6.8848 10.7058C6.81332 10.7886 6.75885 10.8847 6.72451 10.9885C6.69016 11.0924 6.67661 11.202 6.68463 11.3111C6.69264 11.4202 6.72207 11.5267 6.77123 11.6244C6.82039 11.7222 6.88832 11.8093 6.97114 11.8807C7.05396 11.9522 7.15004 12.0067 7.25391 12.041C7.35778 12.0754 7.4674 12.0889 7.5765 12.0809C7.68561 12.0729 7.79207 12.0435 7.8898 11.9943L10.3743 10.7443C10.5124 10.675 10.6284 10.5688 10.7094 10.4373C10.7905 10.3059 10.8334 10.1545 10.8333 10.0001V5.83342C10.8334 5.72397 10.8118 5.6156 10.77 5.51448C10.7281 5.41336 10.6667 5.32148 10.5893 5.2441C10.5119 5.16671 10.42 5.10533 10.3189 5.06346C10.2178 5.02159 10.1094 5.00005 9.99999 5.00008ZM9.99999 1.66675C8.35182 1.66675 6.74065 2.15549 5.37024 3.07117C3.99983 3.98685 2.93173 5.28834 2.301 6.81105C1.67027 8.33377 1.50524 10.0093 1.82678 11.6258C2.14833 13.2423 2.942 14.7272 4.10744 15.8926C5.27287 17.0581 6.75773 17.8517 8.37424 18.1733C9.99075 18.4948 11.6663 18.3298 13.189 17.6991C14.7117 17.0683 16.0132 16.0002 16.9289 14.6298C17.8446 13.2594 18.3333 11.6483 18.3333 10.0001C18.3308 7.79072 17.452 5.67257 15.8898 4.11032C14.3275 2.54806 12.2094 1.66928 9.99999 1.66675ZM9.99999 16.6667C8.68145 16.6667 7.39252 16.2758 6.29619 15.5432C5.19986 14.8107 4.34538 13.7695 3.8408 12.5513C3.33621 11.3331 3.20419 9.99269 3.46143 8.69948C3.71866 7.40627 4.3536 6.21839 5.28595 5.28604C6.2183 4.35369 7.40619 3.71875 8.69939 3.46151C9.9926 3.20428 11.333 3.3363 12.5512 3.84088C13.7694 4.34547 14.8106 5.19995 15.5431 6.29628C16.2757 7.39261 16.6667 8.68154 16.6667 10.0001C16.6646 11.7676 15.9616 13.4621 14.7118 14.7119C13.462 15.9617 11.7675 16.6647 9.99999 16.6667Z" fill="white"/>
</svg>
