<svg width="20" height="20" viewBox="0 0 20 20" fill="none" xmlns="http://www.w3.org/2000/svg">
<path d="M9.99999 4.99984C9.89055 4.99981 9.78218 5.02134 9.68106 5.06321C9.57994 5.10508 9.48806 5.16646 9.41067 5.24385C9.33329 5.32124 9.2719 5.41312 9.23004 5.51423C9.18817 5.61535 9.16663 5.72373 9.16666 5.83317V9.48633L7.14111 10.5056C7.04338 10.5548 6.95628 10.6227 6.8848 10.7055C6.81332 10.7883 6.75885 10.8844 6.72451 10.9883C6.69016 11.0922 6.67661 11.2018 6.68463 11.3109C6.69264 11.42 6.72207 11.5265 6.77123 11.6242C6.82039 11.7219 6.88832 11.809 6.97114 11.8805C7.05396 11.952 7.15004 12.0064 7.25391 12.0408C7.35778 12.0751 7.4674 12.0887 7.5765 12.0807C7.68561 12.0727 7.79207 12.0432 7.8898 11.9941L10.3743 10.7441C10.5124 10.6748 10.6284 10.5685 10.7094 10.4371C10.7905 10.3056 10.8334 10.1543 10.8333 9.99984V5.83317C10.8334 5.72373 10.8118 5.61535 10.77 5.51423C10.7281 5.41312 10.6667 5.32124 10.5893 5.24385C10.5119 5.16646 10.42 5.10508 10.3189 5.06321C10.2178 5.02134 10.1094 4.99981 9.99999 4.99984ZM9.99999 1.6665C8.35182 1.6665 6.74065 2.15525 5.37024 3.07092C3.99983 3.9866 2.93173 5.28809 2.301 6.81081C1.67027 8.33353 1.50524 10.0091 1.82678 11.6256C2.14833 13.2421 2.942 14.727 4.10744 15.8924C5.27287 17.0578 6.75773 17.8515 8.37424 18.173C9.99075 18.4946 11.6663 18.3296 13.189 17.6988C14.7117 17.0681 16.0132 16 16.9289 14.6296C17.8446 13.2592 18.3333 11.648 18.3333 9.99984C18.3308 7.79048 17.452 5.67233 15.8898 4.11007C14.3275 2.54782 12.2094 1.66903 9.99999 1.6665ZM9.99999 16.6665C8.68145 16.6665 7.39252 16.2755 6.29619 15.543C5.19986 14.8104 4.34538 13.7692 3.8408 12.5511C3.33621 11.3329 3.20419 9.99244 3.46143 8.69924C3.71866 7.40603 4.3536 6.21814 5.28595 5.28579C6.2183 4.35344 7.40619 3.7185 8.69939 3.46127C9.9926 3.20403 11.333 3.33606 12.5512 3.84064C13.7694 4.34522 14.8106 5.19971 15.5431 6.29604C16.2757 7.39236 16.6667 8.6813 16.6667 9.99984C16.6646 11.7673 15.9616 13.4618 14.7118 14.7116C13.462 15.9615 11.7675 16.6645 9.99999 16.6665Z" fill="white"/>
</svg>
